<?xml version="1.0" encoding="utf-8"?>
<svg width="50px" height="50px" viewBox="0 0 50 50" version="1.1" xmlns:xlink="http://www.w3.org/1999/xlink" xmlns="http://www.w3.org/2000/svg">
  <defs>
    <path d="M0 0L50 0L50 50L0 50L0 0Z" id="path_1" />
    <clipPath id="mask_1">
      <use xlink:href="#path_1" />
    </clipPath>
  </defs>
  <g id="Search-icon">
    <path d="M0 0L50 0L50 50L0 50L0 0Z" id="Background" fill="none" fill-rule="evenodd" stroke="none" />
    <g clip-path="url(#mask_1)">
      <path d="M21 3C11.6016 3 4 10.6016 4 20C4 29.3984 11.6016 37 21 37C24.3555 37 27.4609 36.0156 30.0938 34.3438L42.375 46.625L46.625 42.375L34.5 30.2813C36.6797 27.4219 38 23.8789 38 20C38 10.6016 30.3984 3 21 3L21 3ZM21 7C28.1992 7 34 12.8008 34 20C34 27.1992 28.1992 33 21 33C13.8008 33 8 27.1992 8 20C8 12.8008 13.8008 7 21 7L21 7Z" id="Shape" fill="#FFFFFF" fill-rule="evenodd" stroke="none" />
    </g>
  </g>
</svg>